grf
version=1
nRows=25
nColumns=46
inDegrees=yes
endheader
time	ground_force_1_vx	ground_force_1_vy	ground_force_1_vz	ground_force_1_px	ground_force_1_py	ground_force_1_pz	ground_moment_1_mx	ground_moment_1_my	ground_moment_1_mz	ground_force_2_vx	ground_force_2_vy	ground_force_2_vz	ground_force_2_px	ground_force_2_py	ground_force_2_pz	ground_moment_2_mx	ground_moment_2_my	ground_moment_2_mz	ground_force_3_vx	ground_force_3_vy	ground_force_3_vz	ground_force_3_px	ground_force_3_py	ground_force_3_pz	ground_moment_3_mx	ground_moment_3_my	ground_moment_3_mz	ground_force_4_vx	ground_force_4_vy	ground_force_4_vz	ground_force_4_px	ground_force_4_py	ground_force_4_pz	ground_moment_4_mx	ground_moment_4_my	ground_moment_4_mz	ground_force_5_vx	ground_force_5_vy	ground_force_5_vz	ground_force_5_px	ground_force_5_py	ground_force_5_pz	ground_moment_5_mx	ground_moment_5_my	ground_moment_5_mz
7.436000	0.000000	0.000000	0.000000	0.000000	0.000000	0.000000	0.000000	0.000000	0.000000	0.000000	0.000000	0.000000	0.000000	0.000000	0.000000	0.000000	0.000000	0.000000	0.000000	0.000000	0.000000	0.000000	0.000000	0.000000	0.000000	0.000000	0.000000	18.310435	632.213014	-2.653953	1.081424	0.000000	0.245012	-0.000000	8.601430	0.000000	-20.910723	635.114548	6.307475	1.375868	0.000000	0.264694	-0.000000	-5.598640	0.000000
7.436500	0.000000	0.000000	0.000000	0.000000	0.000000	0.000000	0.000000	0.000000	0.000000	0.000000	0.000000	0.000000	0.000000	0.000000	0.000000	0.000000	0.000000	0.000000	0.000000	0.000000	0.000000	0.000000	0.000000	0.000000	0.000000	0.000000	0.000000	18.277849	632.081987	-2.583752	1.081424	0.000000	0.245020	-0.000000	8.601616	0.000000	-20.858727	634.998715	6.404729	1.375863	0.000000	0.264682	-0.000000	-5.598911	0.000000
7.437000	0.000000	0.000000	0.000000	0.000000	0.000000	0.000000	0.000000	0.000000	0.000000	0.000000	0.000000	0.000000	0.000000	0.000000	0.000000	0.000000	0.000000	0.000000	0.000000	0.000000	0.000000	0.000000	0.000000	0.000000	0.000000	0.000000	0.000000	18.245166	631.954883	-2.513383	1.081424	0.000000	0.245027	-0.000000	8.601900	0.000000	-20.806165	634.883789	6.502887	1.375859	0.000000	0.264671	-0.000000	-5.599262	0.000000
7.437500	0.000000	0.000000	0.000000	0.000000	0.000000	0.000000	0.000000	0.000000	0.000000	0.000000	0.000000	0.000000	0.000000	0.000000	0.000000	0.000000	0.000000	0.000000	0.000000	0.000000	0.000000	0.000000	0.000000	0.000000	0.000000	0.000000	0.000000	18.212402	631.831818	-2.442902	1.081425	0.000000	0.245034	-0.000000	8.602282	0.000000	-20.753078	634.769661	6.601853	1.375854	0.000000	0.264660	-0.000000	-5.599689	0.000000
7.438000	0.000000	0.000000	0.000000	0.000000	0.000000	0.000000	0.000000	0.000000	0.000000	0.000000	0.000000	0.000000	0.000000	0.000000	0.000000	0.000000	0.000000	0.000000	0.000000	0.000000	0.000000	0.000000	0.000000	0.000000	0.000000	0.000000	0.000000	18.179569	631.712879	-2.372367	1.081426	0.000000	0.245041	-0.000000	8.602763	0.000000	-20.699508	634.656213	6.701526	1.375850	0.000000	0.264649	-0.000000	-5.600183	0.000000
7.438500	0.000000	0.000000	0.000000	0.000000	0.000000	0.000000	0.000000	0.000000	0.000000	0.000000	0.000000	0.000000	0.000000	0.000000	0.000000	0.000000	0.000000	0.000000	0.000000	0.000000	0.000000	0.000000	0.000000	0.000000	0.000000	0.000000	0.000000	18.146676	631.598130	-2.301839	1.081427	0.000000	0.245047	-0.000000	8.603343	0.000000	-20.645494	634.543319	6.801803	1.375845	0.000000	0.264638	-0.000000	-5.600739	0.000000
7.439000	0.000000	0.000000	0.000000	0.000000	0.000000	0.000000	0.000000	0.000000	0.000000	0.000000	0.000000	0.000000	0.000000	0.000000	0.000000	0.000000	0.000000	0.000000	0.000000	0.000000	0.000000	0.000000	0.000000	0.000000	0.000000	0.000000	0.000000	18.113729	631.487620	-2.231381	1.081429	0.000000	0.245053	-0.000000	8.604021	0.000000	-20.591077	634.430850	6.902581	1.375841	0.000000	0.264628	-0.000000	-5.601355	0.000000
7.439500	0.000000	0.000000	0.000000	0.000000	0.000000	0.000000	0.000000	0.000000	0.000000	0.000000	0.000000	0.000000	0.000000	0.000000	0.000000	0.000000	0.000000	0.000000	0.000000	0.000000	0.000000	0.000000	0.000000	0.000000	0.000000	0.000000	0.000000	18.080733	631.381384	-2.161055	1.081431	0.000000	0.245058	-0.000000	8.604798	0.000000	-20.536294	634.318673	7.003755	1.375837	0.000000	0.264618	-0.000000	-5.602030	0.000000
7.440000	0.000000	0.000000	0.000000	0.000000	0.000000	0.000000	0.000000	0.000000	0.000000	0.000000	0.000000	0.000000	0.000000	0.000000	0.000000	0.000000	0.000000	0.000000	0.000000	0.000000	0.000000	0.000000	0.000000	0.000000	0.000000	0.000000	0.000000	18.047696	631.279453	-2.090927	1.081434	0.000000	0.245063	-0.000000	8.605672	0.000000	-20.481186	634.206658	7.105217	1.375832	0.000000	0.264608	0.000000	-5.602762	0.000000
7.440500	0.000000	0.000000	0.000000	0.000000	0.000000	0.000000	0.000000	0.000000	0.000000	0.000000	0.000000	0.000000	0.000000	0.000000	0.000000	0.000000	0.000000	0.000000	0.000000	0.000000	0.000000	0.000000	0.000000	0.000000	0.000000	0.000000	0.000000	18.014623	631.181852	-2.021066	1.081437	0.000000	0.245068	-0.000000	8.606643	0.000000	-20.425799	634.094683	7.206852	1.375828	0.000000	0.264599	0.000000	-5.603553	0.000000
7.441000	0.000000	0.000000	0.000000	0.000000	0.000000	0.000000	0.000000	0.000000	0.000000	0.000000	0.000000	0.000000	0.000000	0.000000	0.000000	0.000000	0.000000	0.000000	0.000000	0.000000	0.000000	0.000000	0.000000	0.000000	0.000000	0.000000	0.000000	17.981520	631.088613	-1.951541	1.081441	0.000000	0.245072	-0.000000	8.607708	0.000000	-20.370178	633.982634	7.308542	1.375823	0.000000	0.264590	0.000000	-5.604403	0.000000
7.441500	0.000000	0.000000	0.000000	0.000000	0.000000	0.000000	0.000000	0.000000	0.000000	0.000000	0.000000	0.000000	0.000000	0.000000	0.000000	0.000000	0.000000	0.000000	0.000000	0.000000	0.000000	0.000000	0.000000	0.000000	0.000000	0.000000	0.000000	17.948392	630.999771	-1.882429	1.081445	0.000000	0.245075	-0.000000	8.608866	0.000000	-20.314374	633.870410	7.410170	1.375818	0.000000	0.264582	0.000000	-5.605312	0.000000
7.442000	0.000000	0.000000	0.000000	0.000000	0.000000	0.000000	0.000000	0.000000	0.000000	0.000000	0.000000	0.000000	0.000000	0.000000	0.000000	0.000000	0.000000	0.000000	0.000000	0.000000	0.000000	0.000000	0.000000	0.000000	0.000000	0.000000	0.000000	17.915240	630.915368	-1.813806	1.081449	0.000000	0.245079	-0.000000	8.610111	0.000000	-20.258431	633.757912	7.511624	1.375813	0.000000	0.264574	0.000000	-5.606284	0.000000
7.442500	0.000000	0.000000	0.000000	0.000000	0.000000	0.000000	0.000000	0.000000	0.000000	0.000000	0.000000	0.000000	0.000000	0.000000	0.000000	0.000000	0.000000	0.000000	0.000000	0.000000	0.000000	0.000000	0.000000	0.000000	0.000000	0.000000	0.000000	17.882061	630.835456	-1.745752	1.081454	0.000000	0.245081	-0.000000	8.611442	0.000000	-20.202392	633.645046	7.612796	1.375807	0.000000	0.264566	0.000000	-5.607322	0.000000
7.443000	0.000000	0.000000	0.000000	0.000000	0.000000	0.000000	0.000000	0.000000	0.000000	0.000000	0.000000	0.000000	0.000000	0.000000	0.000000	0.000000	0.000000	0.000000	0.000000	0.000000	0.000000	0.000000	0.000000	0.000000	0.000000	0.000000	0.000000	17.848842	630.760091	-1.678349	1.081459	0.000000	0.245084	-0.000000	8.612858	0.000000	-20.146288	633.531726	7.713584	1.375802	0.000000	0.264559	0.000000	-5.608434	0.000000
7.443500	0.000000	0.000000	0.000000	0.000000	0.000000	0.000000	0.000000	0.000000	0.000000	0.000000	0.000000	0.000000	0.000000	0.000000	0.000000	0.000000	0.000000	0.000000	0.000000	0.000000	0.000000	0.000000	0.000000	0.000000	0.000000	0.000000	0.000000	17.815568	630.689337	-1.611679	1.081464	0.000000	0.245086	-0.000000	8.614358	0.000000	-20.090146	633.417886	7.813885	1.375796	0.000000	0.264552	0.000000	-5.609625	0.000000
7.444000	0.000000	0.000000	0.000000	0.000000	0.000000	0.000000	0.000000	0.000000	0.000000	0.000000	0.000000	0.000000	0.000000	0.000000	0.000000	0.000000	0.000000	0.000000	0.000000	0.000000	0.000000	0.000000	0.000000	0.000000	0.000000	0.000000	0.000000	17.782228	630.623251	-1.545816	1.081470	0.000000	0.245087	-0.000000	8.615943	0.000000	-20.033992	633.303485	7.913592	1.375789	0.000000	0.264546	0.000000	-5.610904	0.000000
7.444500	0.000000	0.000000	0.000000	0.000000	0.000000	0.000000	0.000000	0.000000	0.000000	0.000000	0.000000	0.000000	0.000000	0.000000	0.000000	0.000000	0.000000	0.000000	0.000000	0.000000	0.000000	0.000000	0.000000	0.000000	0.000000	0.000000	0.000000	17.748828	630.561879	-1.480832	1.081476	0.000000	0.245088	-0.000000	8.617612	0.000000	-19.977848	633.188505	8.012600	1.375782	0.000000	0.264540	0.000000	-5.612279	0.000000
7.445000	0.000000	0.000000	0.000000	0.000000	0.000000	0.000000	0.000000	0.000000	0.000000	0.000000	0.000000	0.000000	0.000000	0.000000	0.000000	0.000000	0.000000	0.000000	0.000000	0.000000	0.000000	0.000000	0.000000	0.000000	0.000000	0.000000	0.000000	17.715388	630.505254	-1.416788	1.081482	0.000000	0.245089	-0.000000	8.619367	0.000000	-19.921740	633.072953	8.110805	1.375775	0.000000	0.264535	0.000000	-5.613755	0.000000
7.445500	0.000000	0.000000	0.000000	0.000000	0.000000	0.000000	0.000000	0.000000	0.000000	0.000000	0.000000	0.000000	0.000000	0.000000	0.000000	0.000000	0.000000	0.000000	0.000000	0.000000	0.000000	0.000000	0.000000	0.000000	0.000000	0.000000	0.000000	17.681948	630.453397	-1.353744	1.081489	0.000000	0.245090	-0.000000	8.621207	0.000000	-19.865694	632.956844	8.208105	1.375767	0.000000	0.264530	0.000000	-5.615337	0.000000
7.446000	0.000000	0.000000	0.000000	0.000000	0.000000	0.000000	0.000000	0.000000	0.000000	0.000000	0.000000	0.000000	0.000000	0.000000	0.000000	0.000000	0.000000	0.000000	0.000000	0.000000	0.000000	0.000000	0.000000	0.000000	0.000000	0.000000	0.000000	17.648561	630.406320	-1.291755	1.081496	0.000000	0.245090	-0.000000	8.623136	0.000000	-19.809743	632.840211	8.304403	1.375758	0.000000	0.264526	0.000000	-5.617029	0.000000
7.446500	0.000000	0.000000	0.000000	0.000000	0.000000	0.000000	0.000000	0.000000	0.000000	0.000000	0.000000	0.000000	0.000000	0.000000	0.000000	0.000000	0.000000	0.000000	0.000000	0.000000	0.000000	0.000000	0.000000	0.000000	0.000000	0.000000	0.000000	17.615289	630.364041	-1.230878	1.081503	0.000000	0.245089	-0.000000	8.625155	0.000000	-19.753916	632.723114	8.399611	1.375750	0.000000	0.264522	0.000000	-5.618834	0.000000
7.447000	0.000000	0.000000	0.000000	0.000000	0.000000	0.000000	0.000000	0.000000	0.000000	0.000000	0.000000	0.000000	0.000000	0.000000	0.000000	0.000000	0.000000	0.000000	0.000000	0.000000	0.000000	0.000000	0.000000	0.000000	0.000000	0.000000	0.000000	17.582200	630.326589	-1.171176	1.081511	0.000000	0.245089	-0.000000	8.627267	0.000000	-19.698239	632.605647	8.493643	1.375741	0.000000	0.264519	0.000000	-5.620753	0.000000
7.447500	0.000000	0.000000	0.000000	0.000000	0.000000	0.000000	0.000000	0.000000	0.000000	0.000000	0.000000	0.000000	0.000000	0.000000	0.000000	0.000000	0.000000	0.000000	0.000000	0.000000	0.000000	0.000000	0.000000	0.000000	0.000000	0.000000	0.000000	17.549363	630.294007	-1.112718	1.081519	0.000000	0.245088	-0.000000	8.629472	0.000000	-19.642738	632.487932	8.586422	1.375731	0.000000	0.264516	0.000000	-5.622789	0.000000
7.448000	0.000000	0.000000	0.000000	0.000000	0.000000	0.000000	0.000000	0.000000	0.000000	0.000000	0.000000	0.000000	0.000000	0.000000	0.000000	0.000000	0.000000	0.000000	0.000000	0.000000	0.000000	0.000000	0.000000	0.000000	0.000000	0.000000	0.000000	17.516845	630.266347	-1.055574	1.081527	0.000000	0.245087	-0.000000	8.631768	0.000000	-19.587434	632.370094	8.677872	1.375721	0.000000	0.264514	0.000000	-5.624943	0.000000
